<svg xmlns="http://www.w3.org/2000/svg" width="18.412" height="22.22" viewBox="0 0 18.412 22.22"><defs><style>.a{fill:#333;stroke:#333;stroke-width:0.3px;}</style></defs><g transform="translate(0.151 0.155)"><g transform="translate(0 0)"><path class="a" d="M62.512,5.393a.428.428,0,0,0-.26-.2l-3.211-.86a2.207,2.207,0,0,0,.1-.389,2.018,2.018,0,1,0-2.529-2.529,2.222,2.222,0,0,0-1.846,1.772L48.834,1.6a.428.428,0,0,0-.524.3L44.475,16.213a.428.428,0,0,0,.3.524l2.76.74v4.009a.428.428,0,0,0,.428.428H61.856a.428.428,0,0,0,.428-.428V6.725l.27-1.008a.428.428,0,0,0-.043-.325ZM58.232.9a1.163,1.163,0,1,1-.822,1.424A1.164,1.164,0,0,1,58.232.9ZM55.76,2.927a1.354,1.354,0,0,1,.775-.62,2.02,2.02,0,0,0,1.708,1.709A1.364,1.364,0,1,1,55.76,2.927Zm-6.734-.391,5.745,1.539q.012.054.026.109a2.211,2.211,0,0,0,.3.663L54.65,5.3a.428.428,0,1,0,.605.605l.45-.45A2.216,2.216,0,0,0,58.588,5.1l3.029.811-2.894,10.8-2.27-.608a.428.428,0,0,0-.524.3l-.608,2.27-9.907-2.655Zm8.89,14.846-1.613.931.341-1.272Zm3.512,3.677H48.393V17.706l7.118,1.907a.428.428,0,0,0,.325-.043l3.4-1.964a.428.428,0,0,0,.2-.26l1.99-7.426V21.058Z" transform="translate(-44.46 0.001)"/></g></g></svg>